<!-- by TradingView --><svg xmlns="http://www.w3.org/2000/svg" width="56" height="56"><path fill="#F0F3FA" d="M0 0h56v56H0z"/><path d="M43 43h-8.35C28.09 35.87 13 13 13 13h30v30z" fill="url(#asouijlg5)"/><path d="M13 13s9.18 2.69 17.15 11.35C36.72 31.48 39.08 43 39.08 43H13V13z" fill="url(#bsouijlg5)"/><path d="M24.29 13.86c.01-.06-.06-.13-.17-.17-.1-.05-.2-.05-.22.02-.02.06.06.13.17.17.1.04.2.04.22-.02zm.57.55c.12.05.2.13.18.2-.02.06-.12.06-.24 0-.12-.04-.2-.12-.18-.19.02-.07.12-.07.24-.01zm-.28.44c.15.06.23.14.21.22-.02.07-.15.08-.28.02-.15-.05-.23-.14-.21-.22.03-.07.15-.07.28-.02zm.73.85c.18.07.3.19.27.28-.02.1-.18.11-.36.04s-.29-.2-.27-.29c.03-.09.19-.1.36-.03zm-.27.56c.16.07.26.18.25.27-.03.09-.17.11-.34.05-.17-.07-.27-.19-.25-.27.03-.1.17-.11.34-.05zm2.43 1.32c.02-.1-.09-.24-.25-.33-.18-.08-.32-.08-.36.02-.02.1.1.24.26.33.18.09.33.08.35-.02zm-1.7-2.13c.02-.08-.07-.16-.2-.22-.14-.05-.25-.05-.27.02-.03.08.07.17.2.22.14.06.25.05.27-.02zm-9.11-1.05c.17.05.25.15.18.23-.06.08-.25.1-.42.04-.18-.05-.26-.15-.19-.23.07-.07.26-.1.43-.04zm1.64.76c.07-.1-.03-.22-.23-.3-.2-.06-.42-.04-.5.05-.08.1.02.23.23.3.21.06.42.04.5-.05zm1.47.53c.08-.12-.04-.28-.28-.38-.24-.09-.5-.07-.59.05-.08.13.04.29.29.38.25.1.5.07.58-.05zm.61.8c.26.1.4.28.32.42-.09.13-.35.16-.61.07-.27-.1-.4-.29-.32-.43.09-.13.36-.16.61-.07zm1.65.96c.07-.15-.07-.35-.33-.46-.27-.1-.54-.08-.62.07-.08.15.07.34.34.45.27.11.53.08.6-.06zm1.85 1.34c.29.13.45.36.39.54-.08.18-.36.21-.65.08-.3-.13-.46-.36-.4-.55.1-.16.38-.2.66-.07zm-.54-.78c.07-.17-.1-.39-.37-.51-.28-.12-.57-.1-.65.06-.08.16.08.38.37.51.3.12.57.1.65-.06zm.9.04c.3.14.46.38.4.56-.07.17-.36.2-.67.07-.3-.14-.48-.39-.4-.57.08-.17.37-.2.67-.06zm-3.1-1.82c.08-.14-.06-.34-.34-.45-.27-.11-.55-.1-.65.05-.09.14.06.34.34.45.28.11.56.1.65-.05zm.95.15c.21.1.33.26.27.37-.07.12-.29.13-.5.04-.23-.1-.34-.26-.28-.38.07-.11.29-.13.5-.03zm.81 2.33c.07-.15-.07-.35-.32-.46-.26-.1-.5-.07-.59.07-.06.16.08.36.33.47.26.1.51.07.58-.08zm.38-1.83c.19.09.3.24.25.34-.05.1-.24.12-.43.04-.2-.09-.3-.24-.26-.34.05-.1.24-.12.44-.04zm-3.99-.5c.07-.1-.04-.24-.24-.32-.2-.06-.42-.04-.5.06-.06.11.04.24.25.32.2.07.42.04.49-.06zm5.22 1.09c.16.08.26.21.23.31-.04.1-.2.1-.38.03-.17-.08-.27-.22-.23-.31.04-.1.2-.11.38-.03zm-3 .65c.05-.12-.06-.28-.27-.36-.21-.09-.43-.06-.5.05-.06.13.05.29.27.38.21.08.42.05.5-.07zm9.78-3c0-.07-.08-.15-.2-.22-.1-.06-.2-.09-.21-.02-.01.06.08.14.2.21.1.07.2.1.2.02zm-.26.22c.13.07.23.17.22.24-.01.08-.12.06-.25-.02-.14-.08-.23-.17-.22-.25 0-.07.12-.05.25.03zm.17.7c.01-.08-.1-.18-.24-.26-.14-.08-.26-.1-.28-.03-.01.1.1.2.24.28.15.08.26.1.28.02zm-.31.2c.17.1.29.22.27.32 0 .1-.15.09-.32 0-.17-.1-.29-.23-.28-.33.03-.1.16-.08.33.02zm.23.82c0-.1-.12-.25-.3-.35-.19-.1-.34-.1-.36-.01-.01.1.12.25.3.35.19.1.34.1.36.01zm-.38.13c.2.1.34.27.32.38-.01.11-.18.11-.38 0-.2-.1-.34-.28-.32-.39.02-.1.19-.1.38 0zm.27.95c0-.12-.14-.3-.35-.42-.22-.12-.4-.12-.42 0-.02.13.13.31.35.43.21.12.4.11.42-.01zm-.44.15c.23.12.39.33.37.46-.02.14-.22.15-.45.03-.24-.13-.4-.34-.38-.47.04-.14.23-.14.46-.02zm-.1.59c.25.13.42.35.4.5-.02.16-.23.17-.48.04-.26-.13-.43-.36-.4-.5.03-.16.24-.17.49-.04zm1.03.62c-.2-.1-.36-.1-.38.02 0 .13.13.3.33.41.2.1.35.09.37-.03.01-.12-.13-.3-.32-.4zm-.3-.6c.02-.1.16-.1.34-.01.16.1.28.24.27.34-.01.1-.15.12-.32.03-.17-.1-.3-.25-.28-.35zm.36-.6c-.16-.08-.28-.09-.3.01 0 .1.1.22.26.31.16.08.28.09.3-.01 0-.1-.11-.22-.26-.3zm-.24-.54c.01-.1.13-.08.27 0 .14.07.25.18.24.28-.02.09-.13.08-.27 0s-.25-.2-.24-.28zm.3-.56c-.13-.06-.24-.08-.24 0-.01.08.08.18.2.25.13.07.23.08.24 0 0-.08-.08-.17-.2-.24zm-.2-.5c0-.06.1-.05.22.02.11.06.2.15.19.22 0 .08-.1.06-.22 0-.12-.07-.2-.16-.2-.23zm.24-.48c-.1-.06-.19-.08-.2-.01 0 .06.07.14.18.2.1.05.19.07.19 0 0-.06-.07-.13-.17-.19zm-1.94 2.54c.03-.12-.11-.3-.3-.4-.2-.1-.38-.1-.41.02-.03.12.11.3.31.4.2.1.38.1.4-.02zm-.14-.96c.18.09.3.24.27.34-.02.1-.17.1-.34 0-.18-.08-.3-.23-.28-.34.03-.09.18-.1.35 0zm.4-.25c.02-.1-.09-.22-.24-.3-.16-.08-.29-.1-.31 0-.02.1.09.22.25.3.15.1.28.1.3 0zm-.1-.8c.15.09.25.2.24.28-.02.1-.14.08-.3 0-.14-.08-.24-.19-.22-.27.02-.1.14-.08.29 0zm.34-.22c.02-.08-.07-.17-.2-.24-.13-.07-.23-.08-.25 0-.02.07.07.16.2.24.13.07.24.08.25 0zm-.08-.64c.11.07.2.16.19.23-.02.06-.12.05-.23-.02-.13-.06-.2-.15-.2-.22.02-.07.12-.05.24.01zm.29-.2c0-.07-.07-.14-.17-.2-.1-.05-.2-.07-.2-.01-.02.06.06.13.16.2.1.05.2.06.2 0zm-3.02 2.6c.03-.14-.12-.34-.36-.47-.24-.11-.46-.1-.51.03-.05.15.1.35.35.48.25.12.47.1.52-.04zm-.16.72c.05-.17-.13-.4-.4-.54-.28-.13-.53-.11-.6.05-.05.17.13.4.41.55.28.13.54.11.59-.06zm3.13.46c.29.16.5.43.48.61-.04.17-.23.21-.47.12.21.15.37.35.4.52.1-.1.31-.1.56.02.26.14.45.36.49.56.07-.14.3-.14.55 0 .3.16.51.44.5.65-.02.18-.2.23-.45.14.23.17.4.4.44.59.07-.15.29-.15.54-.02.3.17.53.47.53.7-.02.22-.26.27-.57.1-.27-.14-.48-.4-.52-.6-.05.12-.2.16-.38.12.18.17.31.36.34.53.07-.15.3-.16.56-.02.3.17.53.48.53.72-.02.25-.27.3-.59.14-.27-.16-.48-.42-.52-.65-.07.15-.26.2-.5.11.27.2.46.5.44.74-.02.2-.17.3-.4.27.18.17.3.36.32.54.08-.2.32-.23.6-.08.33.18.57.53.56.8-.02.29-.28.36-.62.19a1.1 1.1 0 01-.55-.7c-.06.17-.22.24-.44.2.2.18.33.41.36.63.08-.2.33-.24.63-.1.33.19.58.56.56.86-.02.3-.3.39-.64.2-.3-.16-.52-.47-.57-.74-.06.19-.25.26-.5.2.24.2.39.5.37.74-.03.31-.33.42-.7.23-.36-.19-.6-.58-.57-.9.03-.23.22-.34.48-.3-.18-.13-.3-.32-.37-.5-.14.14-.4.15-.67 0a1.18 1.18 0 01-.57-.62c-.14.1-.33.13-.56.05.27.2.43.5.4.76-.06.31-.38.41-.76.23-.37-.19-.61-.57-.55-.88.05-.26.31-.36.62-.26-.2-.14-.34-.33-.4-.52-.17.12-.42.13-.7 0-.34-.17-.56-.46-.6-.73-.11.13-.3.18-.53.14.21.19.33.44.28.66-.08.3-.44.4-.82.22-.39-.19-.62-.56-.54-.86.07-.21.29-.31.55-.28-.25-.2-.38-.49-.32-.73.08-.22.3-.32.6-.27-.25-.21-.37-.47-.31-.69.05-.2.25-.29.5-.25-.2-.2-.3-.43-.25-.61.07-.23.33-.3.65-.2-.29-.2-.45-.47-.4-.69.06-.17.26-.24.52-.2-.21-.18-.33-.4-.3-.56-.06.2-.36.23-.7.08-.33-.17-.54-.46-.47-.67.07-.2.38-.23.7-.07.33.16.53.43.48.64.07-.19.32-.23.61-.13-.25-.17-.4-.4-.35-.58.06-.2.34-.22.66-.06.3.16.53.43.48.62.06-.2.33-.2.64-.05.25.14.44.35.48.54.08-.12.27-.14.5-.05-.23-.16-.37-.39-.35-.55.04-.18.3-.2.6-.05zm.65 7.36c.03-.24-.17-.54-.45-.69-.29-.14-.54-.07-.58.17-.04.25.16.56.45.7.3.15.55.08.58-.18zM33 22c.02-.18.22-.2.47-.07.26.14.45.39.44.57 0 .18-.21.22-.47.08s-.45-.4-.44-.58zm.13 5.4c-.31-.16-.57-.07-.6.21-.02.29.2.64.53.81.31.17.57.08.6-.21 0-.29-.22-.63-.53-.8zm-.35-2.88c.02-.23.25-.28.54-.13.29.16.5.46.5.69-.03.23-.26.3-.55.14-.3-.16-.5-.46-.5-.7zm-1.31-4.38c-.22-.11-.4-.1-.42.04-.01.14.14.34.35.45.22.12.4.1.42-.04.01-.14-.14-.33-.35-.45zm1.62 1.14c.01-.15.2-.18.42-.05.22.12.39.33.39.49-.01.15-.2.18-.42.06-.23-.13-.4-.35-.39-.5zm-.64-.6c-.2-.1-.37-.09-.38.04-.02.14.14.34.34.45.2.1.38.09.39-.05 0-.14-.14-.33-.35-.44zm-5.1 4.3c.06-.23.33-.3.63-.16.3.15.48.44.43.68-.05.24-.32.32-.63.18-.3-.15-.49-.45-.43-.7zm-2.1-1.5c.35.17.55.49.48.75-.08.27-.42.35-.77.2-.35-.17-.56-.5-.48-.77.1-.25.43-.33.78-.17zm.82-.21c.07-.28-.15-.61-.52-.8-.37-.16-.73-.09-.82.17-.1.28.13.63.51.81.38.17.74.09.82-.18zm-.22-1.73c.36.17.57.5.5.75-.08.25-.42.32-.79.15-.36-.18-.58-.5-.5-.76.1-.25.43-.31.79-.14zm.7-.18c.06-.21-.14-.49-.45-.64-.3-.15-.6-.1-.68.1-.07.22.12.5.45.66.31.15.61.1.68-.12zm-.15-1.47c.33.17.54.46.48.69-.07.22-.39.26-.73.1-.35-.17-.56-.47-.5-.7.1-.2.4-.25.75-.09zm2.85-.92c.22.11.37.3.34.44-.03.13-.22.15-.45.04-.22-.12-.36-.31-.34-.45.04-.13.23-.15.45-.03zm-1.07-.55c.2.11.35.3.32.42-.04.13-.23.15-.45.04-.21-.11-.36-.3-.32-.43.04-.13.23-.14.45-.03zm.5 1.7c.03-.1-.07-.22-.2-.29-.15-.07-.27-.06-.3.03-.02.1.07.22.22.3.14.06.27.05.28-.04zm1.16.6c.01-.1-.07-.2-.19-.27-.12-.06-.23-.05-.25.04-.01.08.07.19.2.26.12.06.22.05.24-.04zm1.09.56c.01-.1-.08-.2-.2-.26-.12-.06-.22-.06-.24.03-.01.09.07.2.2.26.12.07.22.06.24-.03zm1.1.58c0-.1-.1-.23-.23-.3-.14-.07-.25-.06-.26.04-.01.1.09.22.22.3.14.07.25.05.26-.04zm-3.56-.95c.02-.09-.06-.2-.2-.27-.12-.07-.24-.05-.27.04-.01.1.07.2.2.27s.25.05.27-.04zm3.49 1.8c0-.1-.09-.21-.21-.28-.13-.07-.23-.05-.25.04 0 .1.08.22.21.28.13.07.23.06.25-.04zm-3.68-.98c.02-.1-.06-.22-.2-.29-.13-.06-.25-.04-.28.05-.02.1.07.22.2.29.14.06.26.04.28-.05zm3.58 1.83c.01-.1-.08-.22-.21-.3-.13-.05-.23-.04-.25.06-.01.1.08.23.21.3.13.06.24.04.25-.06zm-3.78-.96c.02-.1-.07-.23-.2-.3-.15-.06-.27-.04-.3.06-.02.1.07.23.2.3.14.07.27.04.3-.06zm3.68 1.88c.01-.11-.08-.24-.22-.31-.13-.07-.24-.04-.25.06-.01.1.08.24.21.31s.25.04.26-.06zm-4.2-.9c.16.07.3.04.34-.08.02-.12-.08-.27-.24-.35-.16-.07-.3-.04-.33.07-.03.12.07.27.23.35zm1.64.56c.01-.1-.08-.24-.22-.31-.13-.07-.26-.04-.28.07-.02.1.07.24.2.3.15.08.27.05.3-.06zm1.21.62c.01-.11-.08-.25-.21-.32-.14-.06-.26-.04-.28.07-.02.1.08.25.22.32.13.06.25.03.27-.07zm1.23.63c0-.12-.1-.28-.25-.36-.15-.08-.28-.05-.3.08 0 .12.1.28.25.36.15.08.28.04.3-.08zm4.72-4.98c-.12-.06-.2-.07-.2.01.01.09.1.19.22.25.11.07.2.07.2-.02-.02-.08-.1-.17-.22-.24zm-.88.04c-.13-.08-.23-.08-.23.02 0 .09.11.2.24.28.13.07.23.07.23-.02 0-.1-.1-.21-.24-.28zm-.95.05c-.17-.1-.3-.09-.31.03 0 .1.13.27.3.37.18.1.31.08.31-.03 0-.12-.13-.28-.3-.37zm-.36.66c0-.13.16-.14.35-.04.2.11.35.3.35.43s-.15.15-.35.04c-.2-.1-.35-.3-.35-.43zm-.15 2.23c.02-.2.21-.23.47-.1.26.15.45.4.45.6 0 .2-.2.25-.47.11-.25-.15-.45-.41-.45-.6zm1.07.58c0-.2.2-.24.47-.1.26.15.47.43.48.64 0 .22-.2.26-.47.11-.27-.15-.48-.44-.48-.65zm1.56.54c-.24-.13-.42-.1-.42.1.01.19.2.45.45.6.23.13.41.08.4-.12-.01-.2-.2-.44-.43-.58zm-1.48.39c0-.2.19-.25.44-.11.24.14.44.4.44.6 0 .21-.18.26-.44.13-.25-.15-.44-.42-.44-.62zm2.5.24c-.22-.12-.37-.08-.37.1.02.18.2.41.4.54.22.13.37.08.36-.1-.01-.17-.19-.41-.4-.54zm1.93.36c-.19-.12-.32-.08-.3.09.02.16.18.39.37.51.2.12.33.08.3-.09-.01-.17-.18-.39-.37-.5zm1.02.7c-.14-.08-.24-.05-.22.08.01.13.14.3.29.4.15.1.24.07.23-.07a.7.7 0 00-.3-.4zm-2.26-.34c0-.17.14-.2.33-.09.2.12.37.35.39.53.01.17-.13.22-.33.1-.2-.13-.37-.36-.39-.54zm-3.85-1.72c-.27-.15-.5-.1-.5.12s.2.51.48.67c.28.15.5.1.5-.13 0-.22-.2-.5-.48-.66zm4.1.73c-.22-.13-.37-.1-.36.08.02.19.2.43.42.56.22.13.37.1.36-.09-.03-.18-.2-.42-.42-.55zm-1.3-.47c-.01-.14.12-.17.3-.07.17.11.32.3.33.44.01.15-.12.18-.3.08-.17-.11-.32-.3-.33-.45zm-.63 1.03c-.2-.12-.36-.08-.36.1s.17.41.38.54c.22.12.37.08.36-.1 0-.18-.17-.42-.38-.54zm-.07-1.66c-.16-.1-.28-.06-.27.06 0 .13.13.3.3.4.16.08.28.06.27-.07 0-.13-.13-.3-.3-.39zm2.83 2.75c-.02-.14.08-.17.24-.07.14.1.28.27.3.41 0 .14-.1.17-.25.08-.15-.1-.28-.28-.3-.42zm-5.25-4.64c0-.13.15-.15.33-.05.17.1.31.27.31.4s-.14.15-.32.05c-.18-.1-.32-.28-.32-.4zm-.65-1.28c-.18-.1-.32-.08-.33.04 0 .12.13.28.3.39.19.09.33.07.34-.05 0-.11-.14-.28-.31-.38zm1.75 2.66c0-.1.11-.13.26-.05.15.08.27.23.27.34 0 .12-.11.14-.26.06-.15-.09-.27-.24-.27-.35zm-.79-.62c-.13-.07-.23-.05-.24.05 0 .1.1.23.23.3.14.08.25.06.25-.04s-.1-.23-.24-.3zm2.94 3.56c0-.15.12-.18.29-.09.16.1.3.3.31.45 0 .15-.11.19-.28.09-.17-.11-.3-.3-.32-.45zm-1.9-5.12c-.15-.08-.27-.07-.27.03s.13.25.28.34c.16.08.27.07.27-.03s-.13-.25-.28-.34zm5.9 5.88c-.02-.12.06-.14.19-.06.11.08.22.23.24.35.02.12-.06.15-.18.07a.68.68 0 01-.25-.36zm-5.2-5.93c-.01-.08.07-.08.18-.02.1.06.19.16.2.24 0 .08-.08.08-.19.02-.1-.06-.19-.16-.2-.24zm.68-.59c0-.07.07-.07.18-.01.1.06.17.14.18.21 0 .07-.07.07-.17.02-.1-.06-.18-.15-.19-.22zm-1.4 1.32c-.12-.07-.22-.07-.22.02 0 .1.1.22.23.29.13.07.22.06.22-.04 0-.09-.1-.2-.23-.27zm-1.08 3.32c-.23-.13-.42-.08-.43.1 0 .2.17.45.4.58.24.13.42.08.43-.12 0-.19-.18-.43-.4-.56zm-.02.92c-.27-.15-.48-.09-.49.14-.01.22.19.52.46.67.27.14.47.07.48-.15 0-.23-.2-.52-.45-.66zm-.53 2.34c0-.22.2-.3.44-.16.24.13.42.41.42.63-.02.23-.2.3-.45.17-.24-.14-.42-.42-.41-.64zm1.73-1.59c-.2-.1-.36-.06-.37.12 0 .18.16.41.36.53.21.11.36.06.36-.12s-.15-.4-.35-.53zm-1.68.5c.02-.21.2-.27.44-.15.23.14.4.4.4.6-.01.22-.2.29-.43.16-.24-.13-.41-.4-.4-.61zm2.84 1.23c-.23-.13-.4-.07-.4.15s.19.5.42.63c.23.14.4.07.39-.16a.87.87 0 00-.41-.62zm-1.59-.54c.01-.2.17-.25.38-.13.2.12.36.36.36.55 0 .2-.16.26-.37.14-.2-.12-.37-.37-.37-.56zm1.53-.52c-.19-.1-.32-.06-.32.1 0 .17.15.39.33.5.18.1.31.05.3-.12 0-.16-.14-.37-.31-.48zm.83 1.9c0-.2.14-.26.34-.13.19.12.35.38.37.58 0 .2-.14.26-.34.14a.85.85 0 01-.37-.59zm-1.99-3.54c-.17-.1-.31-.06-.31.09s.14.35.31.45c.18.1.32.06.32-.1 0-.15-.14-.34-.32-.44zm3.16 4.28c0-.18.12-.23.3-.12a.8.8 0 01.33.54c.01.2-.12.25-.3.13a.83.83 0 01-.33-.55zm-.88-1.89c-.13-.07-.22-.04-.21.08 0 .13.1.28.23.36.13.08.22.04.22-.08a.51.51 0 00-.24-.36zm2.1 2.72c0-.13.07-.16.18-.09.12.08.21.24.22.36 0 .13-.07.17-.18.1a.59.59 0 01-.22-.37zm-.84.2c-.14-.1-.25-.05-.24.11.01.16.13.35.27.45.14.1.24.05.24-.11a.67.67 0 00-.27-.45zm-1.38-.63c0-.14.1-.18.23-.1.13.08.23.26.24.4 0 .14-.1.18-.22.1a.58.58 0 01-.25-.4zm-.95-.8c-.13-.08-.22-.04-.22.09 0 .12.1.27.22.35.13.07.21.03.21-.1 0-.12-.1-.27-.21-.34zm-1.44-.63c0-.11.1-.15.23-.08.13.07.22.22.22.34 0 .12-.1.16-.22.09a.45.45 0 01-.23-.35zm4.86 2.86c-.12-.08-.2-.04-.19.1.01.13.11.3.22.38.11.08.2.04.18-.1a.57.57 0 00-.21-.38zm.98.96c-.01-.12.05-.16.16-.08.1.07.18.23.2.36 0 .13-.06.17-.17.08a.6.6 0 01-.2-.36zm-9.98-4.74c.04-.26.28-.34.56-.2.28.15.48.47.46.72-.03.27-.27.36-.56.21-.29-.15-.49-.47-.46-.73zm1.3.67c.02-.27.26-.36.55-.2.29.15.5.48.48.76-.02.27-.26.37-.55.22-.3-.17-.51-.5-.49-.78zm1.77 1.81c-.28-.15-.5-.05-.53.23-.01.29.2.64.48.81.29.16.51.05.53-.25a1 1 0 00-.48-.79zm.75 2.37c.02-.3.24-.42.53-.26.28.17.5.55.5.87-.01.32-.24.44-.53.27a1.1 1.1 0 01-.5-.88zm1.3 2.44c0-.3.2-.4.45-.25.24.16.43.5.43.8 0 .31-.19.43-.44.27a1.07 1.07 0 01-.44-.82zm-2.02-6.1c-.26-.14-.47-.06-.49.19 0 .25.18.56.44.7.27.15.47.07.48-.19 0-.26-.18-.55-.43-.7zm.72 5.23c.01-.28.2-.38.44-.24s.41.46.41.75c-.01.28-.2.38-.44.24a.95.95 0 01-.41-.75zm1.76 2.26c-.23-.14-.4-.03-.4.25 0 .3.17.64.4.8.22.14.4.03.4-.26 0-.3-.18-.64-.4-.79zm-3.11-4.59c.02-.27.23-.37.5-.23.26.15.45.47.44.76-.02.28-.23.39-.5.24a.92.92 0 01-.44-.77zm-.72-2.28c-.26-.14-.48-.05-.5.2-.03.26.16.57.42.71.27.14.48.04.5-.22.02-.25-.17-.55-.42-.7zm2.58 1.43c-.25-.14-.45-.05-.46.2 0 .28.19.6.44.75.25.14.45.05.45-.22a.93.93 0 00-.43-.73zm1.91 8.47c0-.26.14-.36.32-.23a1 1 0 01.33.72c0 .26-.13.36-.32.23a1.02 1.02 0 01-.33-.72zm.52-1.93c-.21-.14-.36-.04-.37.24.01.28.17.62.38.77.21.15.37.05.36-.24a1.1 1.1 0 00-.37-.77zm-2.73-7.61c0-.18.14-.24.32-.14.17.1.31.33.31.5 0 .19-.14.25-.32.14a.64.64 0 01-.31-.5zm1.57 3.37c-.2-.13-.36-.05-.37.2 0 .23.16.52.37.65.2.13.36.04.36-.2a.85.85 0 00-.36-.65zm-.4 5.02c0-.22.13-.3.3-.2.15.1.28.36.28.58 0 .22-.13.3-.3.2a.77.77 0 01-.28-.58zm2.08 2.74c-.15-.12-.26-.03-.26.2.01.25.13.55.28.67.15.13.25.05.25-.2a1.04 1.04 0 00-.27-.67zm-3.4-5.25c0-.22.15-.3.33-.2.17.11.3.36.3.58 0 .22-.15.3-.33.2a.72.72 0 01-.3-.58zm-.98-2.49c-.16-.09-.3-.02-.3.16s.1.38.26.48c.16.08.3.02.3-.16a.55.55 0 00-.26-.48zm-1.62-2.08c.02-.16.15-.22.3-.14a.5.5 0 01.26.44c-.01.16-.14.22-.3.14a.5.5 0 01-.26-.44zm-.9-2.2c-.16-.08-.3-.03-.32.12 0 .15.1.32.25.41.16.08.3.02.31-.13.01-.14-.1-.32-.25-.4zm-4.03-2.72c-.23-.11-.37-.35-.33-.55.05-.19.26-.24.5-.14.22.12.36.35.33.54-.05.2-.26.26-.5.15zm.93.09c-.05.26.15.59.46.75.31.14.59.05.64-.21.04-.27-.16-.59-.46-.74-.3-.15-.59-.06-.64.2zm-.22 1.27c-.06.27.14.6.44.75.3.14.58.04.63-.23.04-.27-.15-.6-.45-.74-.3-.14-.57-.05-.62.22zm.19 2.07c-.3-.14-.48-.47-.43-.75.06-.27.32-.37.62-.24.28.15.47.47.42.74-.05.28-.31.39-.61.25zm-.7.7c-.05.29.13.61.42.75.29.13.55.02.6-.26.05-.29-.13-.6-.41-.74-.28-.13-.54-.02-.6.26zm.13 2.2a.64.64 0 01-.36-.66c.06-.26.3-.36.54-.25.25.12.4.4.35.66-.05.25-.28.37-.53.25zm-.7 1.1c-.04.27.1.55.34.66.25.11.47-.01.52-.27a.61.61 0 00-.33-.66c-.24-.1-.46.01-.52.27zm-.05 2.57a.55.55 0 01-.3-.62c.07-.24.27-.36.48-.27.21.1.34.36.3.6-.06.25-.26.38-.48.29zm-.63 1.36c-.05.23.05.46.24.54.18.07.36-.05.41-.27.05-.23-.05-.46-.24-.54-.18-.07-.36.04-.41.27zm3.83-9.98c.23.11.42.04.45-.15.02-.2-.13-.44-.35-.56-.22-.1-.41-.04-.45.15-.03.2.12.44.35.56zm.24 1.1c-.03.21-.22.28-.43.17-.22-.1-.36-.35-.33-.54.03-.2.22-.27.43-.16.22.1.36.34.33.54zm-.73 1.48c.21.1.4.03.43-.18.03-.2-.11-.44-.32-.55-.21-.1-.4-.02-.43.18-.04.2.1.44.32.55zm.13 1.24c-.03.2-.2.28-.4.18-.2-.1-.33-.32-.3-.52.03-.2.2-.28.4-.19.2.1.33.33.3.53zm-.74 1.6c.19.1.36.01.39-.18a.51.51 0 00-.27-.51c-.19-.09-.36 0-.4.19a.5.5 0 00.28.5zm-.02 1.5c-.04.2-.19.28-.37.2a.48.48 0 01-.25-.5c.04-.18.2-.26.37-.18.17.08.28.29.25.48zm-2.22-7.59c-.04.2.1.43.32.53.22.1.42.04.47-.16.04-.19-.1-.42-.31-.53-.23-.1-.43-.03-.48.16zm.08 1.85c-.22-.1-.35-.34-.31-.54.05-.2.26-.27.48-.17.2.1.34.33.3.54-.05.2-.25.27-.47.17zm-.5.9c-.04.2.07.43.28.53.21.1.4.01.45-.19.04-.2-.08-.42-.28-.51-.2-.1-.4-.01-.45.18zm0 2.08a.46.46 0 01-.26-.5c.05-.2.23-.27.42-.19.2.1.3.3.26.5-.05.19-.23.27-.42.2zm-.53 1.28c-.05.2.05.4.23.49.18.07.36-.01.4-.2a.44.44 0 00-.23-.48c-.18-.08-.36 0-.4.2zm.36-17.29c.14.07.23.18.21.27-.03.08-.15.08-.3 0-.14-.07-.23-.17-.2-.26.02-.08.15-.08.3 0zm.09.86c.03-.11-.1-.27-.28-.37-.2-.09-.36-.08-.4.02-.03.11.09.27.28.37.2.1.37.09.4-.02zm-.53.24c.21.11.34.29.3.41-.04.13-.24.14-.47.03-.21-.1-.35-.28-.3-.4.05-.13.25-.14.47-.03zm-.09 1.88c.06-.18-.12-.42-.4-.56-.29-.13-.56-.1-.63.07-.06.18.1.42.4.56.3.14.57.1.63-.07zm-.28.76c.06-.2-.12-.46-.43-.6-.31-.15-.61-.11-.7.08-.06.2.12.46.44.61.32.15.61.1.69-.09zm-2.12 5.86c.08-.27-.1-.57-.42-.72-.33-.13-.65-.05-.76.2-.1.27.08.58.42.73.33.14.65.05.76-.21zm1.47-1.24c.32.15.5.45.43.7-.08.26-.39.35-.72.2-.33-.15-.51-.46-.43-.72.09-.25.4-.32.72-.18zm-.11-4.38c.26.12.41.34.35.51-.06.17-.3.21-.57.1-.27-.13-.42-.36-.36-.53.07-.16.32-.2.58-.08zm.1 1.42c.07-.2-.1-.46-.4-.6-.3-.13-.58-.09-.67.1-.07.21.1.48.4.62.31.14.6.08.68-.12zm-1.48 2.34c.29.14.45.4.38.63-.08.23-.38.3-.68.18-.3-.14-.46-.41-.38-.64.09-.23.38-.3.68-.17zm-.49 3.11c.09-.26-.08-.55-.38-.68s-.61-.04-.71.21c-.1.26.07.56.38.7.31.13.61.03.71-.23zm1.59-1.25c.28.13.44.41.38.65-.08.24-.36.33-.65.2-.3-.14-.46-.42-.39-.67.09-.23.37-.3.66-.18zm2.24.13c.05-.25-.13-.55-.43-.69-.3-.14-.59-.06-.66.18-.07.25.11.55.42.7.3.14.6.06.67-.2zM23.8 22.9c.27.13.43.38.36.58-.07.2-.34.27-.63.15-.27-.13-.43-.39-.36-.59.09-.2.35-.25.63-.14zm.7-.37c.06-.19-.1-.42-.36-.54-.27-.12-.52-.07-.6.11-.07.2.09.43.36.55.27.12.52.07.6-.12zm1.15-4.5c.15.08.24.2.22.29-.04.09-.18.1-.34.03-.15-.07-.24-.2-.2-.29.03-.08.17-.1.32-.02zM22.3 28.16c.05-.17-.04-.35-.23-.43-.18-.08-.37-.02-.43.14-.07.17.03.36.22.44.19.08.38.01.44-.15zm1.79-1.12c.17.08.27.25.22.4-.05.15-.22.21-.4.14-.17-.09-.27-.26-.23-.42.06-.15.23-.2.4-.12zm2.09-.04c.03-.14-.06-.3-.23-.38-.17-.08-.32-.03-.36.1-.04.15.05.32.22.4.17.07.33.02.37-.12zm-9.16-7.43c.05-.1-.02-.2-.18-.25-.16-.06-.34-.02-.4.07-.06.1.02.2.18.26.16.05.33.02.4-.08zm3.37-.13c.16.07.24.2.2.29-.06.1-.23.13-.39.07-.17-.07-.25-.2-.2-.3.05-.1.22-.12.39-.06zm3.38.64c.05-.13-.07-.3-.27-.39-.2-.09-.41-.06-.47.07-.05.13.06.3.27.4.21.09.41.06.47-.08zm-1.69.27c.06-.14-.06-.32-.27-.4-.22-.1-.44-.06-.51.08-.07.13.05.3.27.4.22.1.44.06.51-.08zm1.09.13c.23.11.37.3.3.46-.06.16-.3.2-.53.1-.25-.11-.38-.31-.32-.47.08-.15.31-.2.55-.09zm-1.81 5.87c.1-.25-.07-.54-.37-.67-.32-.13-.64-.04-.75.21-.1.26.05.55.37.69.32.12.64.02.75-.23zm-2.15.86c.08-.2-.03-.4-.26-.5-.23-.08-.48 0-.56.18-.1.19.02.4.25.5.24.08.48 0 .57-.18zm1.24-.14c.28.12.43.4.33.65-.1.25-.4.35-.7.23-.3-.12-.44-.4-.34-.66.11-.24.42-.33.7-.22zm-1.72 1.48c.1-.26-.03-.54-.32-.65-.3-.11-.62 0-.74.24-.12.26.02.54.31.66.3.11.63 0 .75-.25zm3.11-3.47c.1-.23-.07-.5-.36-.63-.3-.12-.6-.04-.71.19-.1.23.06.51.36.64.31.12.62.04.71-.2zm-.46-4.31c.27.12.42.34.34.53-.08.18-.37.23-.65.12-.28-.12-.43-.35-.34-.53.09-.18.37-.23.65-.12zm-4.54 8.47c.09-.18 0-.38-.2-.46a.45.45 0 00-.55.19c-.09.19 0 .39.2.47.22.07.45-.02.55-.2zm5.92-7.82c.24.1.38.32.31.49-.07.16-.31.2-.56.1-.25-.1-.38-.32-.31-.48.07-.17.31-.22.56-.11zm-2.83-1.16c.26.1.38.3.3.46-.08.17-.35.21-.61.12-.26-.1-.4-.3-.31-.47.1-.16.36-.2.62-.11zm1.99 3.16c.2.1.32.28.26.44-.06.15-.28.2-.5.12-.2-.1-.32-.28-.26-.44.07-.16.29-.2.5-.12zm-3.2-3.27c.08-.15-.04-.33-.28-.41-.24-.08-.5-.04-.58.1-.09.15.03.33.27.42.25.08.5.03.6-.11zm-2.6 9.98c.2.08.27.26.18.44a.42.42 0 01-.5.2c-.2-.08-.27-.27-.18-.45.1-.17.31-.25.5-.19zm-1.34 1.16c.09-.15.02-.3-.15-.37a.4.4 0 00-.46.17c-.09.16-.02.32.15.38a.4.4 0 00.46-.18zm5.14-2.88c.2.1.32.3.24.5-.08.2-.31.29-.53.2-.22-.1-.33-.31-.25-.51.09-.2.32-.27.54-.19zm-1.8 1.39c.08-.2-.03-.41-.25-.5-.21-.09-.45 0-.53.19-.08.2.03.41.24.5.23.1.46 0 .54-.2zm-.23-9.3c.2.07.3.21.23.34-.08.12-.28.16-.49.1-.19-.07-.29-.22-.22-.34.08-.12.3-.17.49-.1zm1.73 1c.05-.12-.03-.25-.2-.32-.18-.06-.36-.02-.42.09s.03.25.2.31c.18.07.36.03.42-.08zm1.3.29c.14.06.22.19.18.3-.05.1-.2.13-.36.07-.16-.07-.23-.2-.19-.3.05-.1.2-.13.36-.07zm1.6.91c.05-.1-.03-.23-.18-.3-.15-.06-.3-.03-.35.07-.04.11.04.24.2.3.14.07.3.03.34-.07zm-6.2-2.67c.16.06.24.17.18.27-.07.1-.25.14-.42.1-.16-.06-.24-.18-.18-.28.07-.1.25-.13.41-.09zM15 19.86c.05-.1-.02-.2-.17-.23-.16-.04-.33 0-.4.09-.06.09 0 .18.16.23.17.03.34 0 .4-.09zm16.32-5.18c0-.06-.06-.13-.17-.18-.1-.06-.18-.08-.19-.03 0 .06.07.13.17.19s.18.08.2.02z" fill="#F0F3FA"/><defs><linearGradient id="asouijlg5" x1="29.65" y1="29.13" x2="43.22" y2="13.18" gradientUnits="userSpaceOnUse"><stop stop-color="#0064B0"/><stop offset="1" stop-color="#00ABEB"/></linearGradient><linearGradient id="bsouijlg5" x1="35.23" y1="22.93" x2="12.93" y2="42.69" gradientUnits="userSpaceOnUse"><stop stop-color="#029948"/><stop offset="1" stop-color="#7FBF3F"/></linearGradient></defs></svg>